<?xml version="1.0" standalone="no"?>
<!DOCTYPE svg PUBLIC "-//W3C//DTD SVG 20010904//EN"
 "http://www.w3.org/TR/2001/REC-SVG-20010904/DTD/svg10.dtd">
<svg version="1.0" xmlns="http://www.w3.org/2000/svg"
 width="267.000000pt" height="267.000000pt" viewBox="0 0 267.000000 267.000000"
 preserveAspectRatio="xMidYMid meet">
<metadata>
Created by potrace 1.11, written by Peter Selinger 2001-2013
</metadata>
<g transform="translate(0.000000,267.000000) scale(0.100000,-0.100000)"
fill="#000000" stroke="none">
<path d="M1182 2659 c-227 -26 -454 -116 -641 -251 -82 -60 -249 -233 -303
-314 -220 -331 -288 -714 -194 -1088 111 -437 437 -787 867 -930 145 -49 256
-66 425 -66 365 0 677 129 935 385 259 258 389 573 389 945 0 162 -18 276 -66
419 -80 240 -216 440 -410 600 -283 234 -642 342 -1002 300z m-508 -643 c234
-88 414 -88 588 0 l71 36 71 -36 c179 -89 371 -87 608 6 73 29 79 30 102 15
42 -28 110 -230 141 -422 20 -119 19 -331 -1 -435 -74 -390 -336 -644 -798
-774 -121 -34 -150 -32 -315 23 -216 72 -357 154 -487 285 -179 180 -257 388
-257 681 0 198 32 368 103 554 27 69 47 94 79 100 2 1 44 -14 95 -33z"/>
<path d="M1283 1884 c-172 -76 -423 -77 -616 -4 l-49 19 -13 -33 c-29 -68 -85
-327 -85 -390 0 -14 83 -16 808 -16 445 0 811 2 814 5 15 15 -43 307 -79 397
l-14 36 -55 -19 c-205 -72 -445 -70 -609 5 l-50 23 -52 -23z"/>
<path d="M525 1274 c40 -372 290 -629 730 -749 l80 -22 90 24 c197 54 354 136
476 251 143 134 215 284 244 510 l7 52 -817 0 -817 0 7 -66z"/>
</g>
</svg>
