<?xml version="1.0" standalone="no"?>
<!DOCTYPE svg PUBLIC "-//W3C//DTD SVG 20010904//EN"
 "http://www.w3.org/TR/2001/REC-SVG-20010904/DTD/svg10.dtd">
<svg version="1.0" xmlns="http://www.w3.org/2000/svg"
 width="445.000000pt" height="445.000000pt" viewBox="0 0 445.000000 445.000000"
 preserveAspectRatio="xMidYMid meet">
<metadata>
Created by potrace 1.11, written by Peter Selinger 2001-2013
</metadata>
<g transform="translate(0.000000,445.000000) scale(0.100000,-0.100000)"
fill="#000000" stroke="none">
<path d="M1955 4429 c-208 -26 -482 -105 -667 -192 -551 -258 -979 -738 -1167
-1312 -83 -253 -111 -432 -111 -705 0 -255 33 -465 106 -686 115 -347 294
-634 555 -891 126 -123 201 -184 339 -275 402 -263 871 -387 1354 -357 1224
76 2151 1126 2075 2351 -24 391 -144 752 -357 1078 -91 138 -152 213 -275 339
-355 361 -792 579 -1297 647 -116 15 -441 17 -555 3z m-858 -1063 c385 -157
769 -156 1028 1 78 48 120 49 195 4 269 -163 668 -162 1049 0 161 69 185 51
271 -197 49 -143 93 -313 121 -472 27 -147 37 -465 20 -608 -56 -478 -259
-827 -639 -1102 -106 -76 -390 -218 -532 -266 -147 -49 -334 -96 -383 -96 -52
0 -267 56 -407 106 -147 53 -398 181 -509 261 -303 217 -503 504 -595 854 -74
280 -74 655 0 988 52 233 145 500 187 538 47 43 63 42 194 -11z"/>
<path d="M2165 3147 c-274 -138 -645 -149 -1012 -28 -83 27 -120 35 -126 27
-11 -17 -56 -160 -82 -266 -30 -116 -62 -304 -67 -385 l-3 -60 1353 -3 c851
-1 1352 1 1352 7 0 32 -34 261 -51 341 -20 101 -96 360 -107 372 -4 4 -45 -7
-92 -23 -373 -134 -763 -124 -1058 25 l-47 24 -60 -31z"/>
<path d="M875 2153 c51 -519 322 -895 815 -1132 139 -67 306 -127 450 -161
l95 -23 131 36 c524 143 877 393 1061 753 82 159 130 326 149 522 l7 72 -1358
0 -1357 0 7 -67z"/>
</g>
</svg>
