<?xml version="1.0" standalone="no"?>
<!DOCTYPE svg PUBLIC "-//W3C//DTD SVG 20010904//EN"
 "http://www.w3.org/TR/2001/REC-SVG-20010904/DTD/svg10.dtd">
<svg version="1.0" xmlns="http://www.w3.org/2000/svg"
 width="445.000000pt" height="445.000000pt" viewBox="0 0 445.000000 445.000000"
 preserveAspectRatio="xMidYMid meet">
<metadata>
Created by potrace 1.11, written by Peter Selinger 2001-2013
</metadata>
<g transform="translate(0.000000,445.000000) scale(0.100000,-0.100000)"
fill="#000000" stroke="none">
<path d="M2080 4444 c-549 -41 -1042 -265 -1425 -649 -345 -345 -561 -776
-631 -1260 -23 -162 -23 -458 0 -620 79 -544 353 -1041 766 -1387 322 -270
702 -441 1120 -505 158 -23 473 -23 630 1 495 75 906 281 1255 631 350 349
556 760 631 1255 24 157 24 472 1 630 -122 803 -649 1465 -1402 1759 -131 52
-336 105 -481 125 -114 16 -368 27 -464 20z m-1006 -1074 c203 -86 382 -124
586 -123 179 1 291 27 438 102 53 27 106 52 116 55 13 5 56 -12 126 -48 125
-65 214 -91 355 -107 212 -22 470 27 731 142 51 22 52 22 90 3 48 -23 66 -60
134 -263 85 -255 127 -483 137 -731 27 -723 -284 -1257 -912 -1560 -66 -32
-165 -74 -219 -95 -116 -42 -387 -115 -431 -115 -16 0 -88 16 -160 34 -692
183 -1136 549 -1314 1082 -65 193 -84 321 -85 574 -1 290 34 504 128 793 64
196 98 264 138 282 18 8 37 14 41 15 4 0 50 -18 101 -40z"/>
<path d="M2177 3153 c-77 -38 -245 -91 -335 -104 -52 -7 -144 -10 -240 -7
-177 6 -299 28 -464 84 -56 18 -105 31 -109 27 -11 -13 -66 -190 -93 -298 -26
-108 -51 -251 -62 -357 l-6 -68 1356 0 1356 0 0 28 c0 53 -39 290 -65 398 -30
118 -82 285 -93 296 -4 4 -54 -8 -112 -27 -169 -57 -275 -76 -462 -82 -134 -4
-187 -2 -265 12 -102 18 -236 61 -313 100 l-45 23 -48 -25z"/>
<path d="M874 2148 c29 -348 188 -671 436 -885 207 -178 479 -314 795 -396
l125 -32 125 32 c346 90 623 235 832 436 231 223 364 509 389 840 l7 87 -1358
0 -1358 0 7 -82z"/>
</g>
</svg>
